<svg width="96" height="96" viewBox="0 0 96 96" fill="none" xmlns="http://www.w3.org/2000/svg">
  <rect width="96" height="96" rx="24" fill="#111827"/>
  <path d="M23 28C23 24.6863 25.6863 22 29 22H67C70.3137 22 73 24.6863 73 28V68C73 71.3137 70.3137 74 67 74H29C25.6863 74 23 71.3137 23 68V28Z" fill="#2563EB"/>
  <path d="M37.5 58.5C32.2533 58.5 28 54.2467 28 49C28 43.7533 32.2533 39.5 37.5 39.5C42.7467 39.5 47 43.7533 47 49C47 51.0027 46.3817 52.861 45.325 54.3935L49.5 58.5H43.6L41.9 56.838C40.5795 57.8915 39.05 58.5 37.5 58.5Z" fill="white"/>
  <path d="M55.5 39.5H61.2L68.5 58.5H63.2L62.05 55.2H54.3L53.15 58.5H48L55.5 39.5ZM55.65 51.3H60.7L58.2 44.1L55.65 51.3Z" fill="white"/>
</svg>
